<?xml version="1.0" encoding="utf-8"?>
<!-- Generator: Adobe Illustrator 23.0.6, SVG Export Plug-In . SVG Version: 6.00 Build 0)  -->
<svg version="1.1" id="Calque_1" xmlns="http://www.w3.org/2000/svg" xmlns:xlink="http://www.w3.org/1999/xlink" x="0px" y="0px"
	 viewBox="0 0 1000 1000" style="enable-background:new 0 0 1000 1000;" xml:space="preserve">
<style type="text/css">
	.st0{fill:#1D71B8;}
	.st1{fill:#4EAE33;}
	.st2{fill:#F6F6F6;}
	.st3{fill:#FCEA10;}
	.st4{fill:#BE1622;}
	.st5{fill:url(#SVGID_1_);stroke:#010202;stroke-miterlimit:10;}
	.st6{fill:url(#SVGID_2_);stroke:#010202;stroke-miterlimit:10;}
	.st7{fill:url(#SVGID_3_);stroke:#010202;stroke-miterlimit:10;}
	.st8{fill:url(#SVGID_4_);stroke:#010202;stroke-miterlimit:10;}
	.st9{fill:url(#SVGID_5_);stroke:#010202;stroke-miterlimit:10;}
	.st10{fill:url(#SVGID_6_);stroke:#010202;stroke-miterlimit:10;}
	.st11{fill:url(#SVGID_7_);stroke:#010202;stroke-miterlimit:10;}
	.st12{fill:url(#SVGID_8_);stroke:#010202;stroke-miterlimit:10;}
	.st13{fill:url(#SVGID_9_);stroke:#010202;stroke-miterlimit:10;}
	.st14{fill:url(#SVGID_10_);stroke:#010202;stroke-miterlimit:10;}
	.st15{fill:url(#SVGID_11_);stroke:#010202;stroke-miterlimit:10;}
	.st16{fill:url(#SVGID_12_);stroke:#010202;stroke-miterlimit:10;}
	.st17{fill:url(#SVGID_13_);stroke:#010202;stroke-miterlimit:10;}
	.st18{fill:url(#SVGID_14_);stroke:#010202;stroke-miterlimit:10;}
	.st19{fill:url(#SVGID_15_);stroke:#010202;stroke-miterlimit:10;}
	.st20{fill:url(#SVGID_16_);stroke:#010202;stroke-miterlimit:10;}
	.st21{fill:url(#SVGID_17_);stroke:#010202;stroke-miterlimit:10;}
	.st22{fill:url(#SVGID_18_);stroke:#010202;stroke-miterlimit:10;}
	.st23{fill:url(#SVGID_19_);stroke:#010202;stroke-miterlimit:10;}
	.st24{fill:url(#SVGID_20_);stroke:#010202;stroke-miterlimit:10;}
	.st25{fill:url(#SVGID_21_);stroke:#010202;stroke-miterlimit:10;}
	.st26{fill:url(#SVGID_22_);stroke:#010202;stroke-miterlimit:10;}
	.st27{fill:url(#SVGID_23_);stroke:#010202;stroke-miterlimit:10;}
	.st28{fill:url(#SVGID_24_);stroke:#010202;stroke-miterlimit:10;}
</style>
<g id="Calque_7">
	<circle class="st0" cx="461.2" cy="125.3" r="13.1"/>
	
		<ellipse transform="matrix(0.3827 -0.9239 0.9239 0.3827 194.4859 541.6886)" class="st0" cx="502.6" cy="125.3" rx="13.1" ry="13.1"/>
	<circle class="st0" cx="544.6" cy="125.3" r="13.1"/>
	<circle class="st0" cx="585.4" cy="125.3" r="13.1"/>
	<circle class="st0" cx="585.4" cy="167.4" r="13.1"/>
	<circle class="st0" cx="585.4" cy="206.8" r="13.1"/>
	<circle class="st0" cx="585.4" cy="248.8" r="13.1"/>
	<circle class="st0" cx="585.4" cy="290.9" r="13.1"/>
	<circle class="st0" cx="626" cy="289" r="13.1"/>
	<circle class="st0" cx="665.5" cy="289" r="13.1"/>
	<circle class="st0" cx="707.8" cy="292.5" r="13.1"/>
	<circle class="st0" cx="748.2" cy="305.6" r="13.1"/>
	<circle class="st0" cx="778" cy="275.9" r="13.1"/>
	<circle class="st0" cx="807.7" cy="246.1" r="13.1"/>
	<circle class="st0" cx="835.6" cy="218.2" r="13.1"/>
	<circle class="st0" cx="865.3" cy="188.5" r="13.1"/>
	<g id="Calque_10_-_copie">
		<circle class="st0" cx="793.3" cy="186.6" r="13.1"/>
		<circle class="st0" cx="752.6" cy="186.6" r="13.1"/>
		<circle class="st0" cx="710.5" cy="186.6" r="13.1"/>
		<circle class="st0" cx="669.1" cy="186.6" r="13.1"/>
	</g>
	<g id="Calque_11_-_copie">
		<circle class="st0" cx="818.7" cy="348.1" r="13.1"/>
		<circle class="st0" cx="847.5" cy="319.3" r="13.1"/>
		<circle class="st0" cx="877.2" cy="289.6" r="13.1"/>
		<circle class="st0" cx="876.8" cy="249.1" r="13.1"/>
	</g>
</g>
<g id="Calque_3">
	<circle class="st1" cx="898" cy="211" r="13.1"/>
	<circle class="st1" cx="930.3" cy="238.1" r="13.1"/>
	<circle class="st1" cx="958.2" cy="265.9" r="13.1"/>
	<circle class="st1" cx="982.8" cy="300.9" r="13.1"/>
	<circle class="st1" cx="953.6" cy="328.4" r="13.1"/>
	<circle class="st1" cx="923.4" cy="359.4" r="13.1"/>
	<circle class="st1" cx="893.2" cy="390.5" r="13.1"/>
	<circle class="st1" cx="865.4" cy="419.7" r="13.1"/>
	<circle class="st1" cx="878.5" cy="457.2" r="13.1"/>
	<circle class="st1" cx="879.7" cy="499.4" r="13.1"/>
	<circle class="st1" cx="878.5" cy="539.4" r="13.1"/>
	<circle class="st1" cx="866.5" cy="579.3" r="13.1"/>
	<circle class="st1" cx="896.5" cy="608.8" r="13.1"/>
	<circle class="st1" cx="926.5" cy="638.2" r="13.1"/>
	<circle class="st1" cx="954.6" cy="665.9" r="13.1"/>
	<circle class="st1" cx="984.6" cy="695.4" r="13.1"/>
	<g id="Calque_10_-_copie_4">
		<circle class="st1" cx="983.8" cy="622.4" r="13.1"/>
		<circle class="st1" cx="983.8" cy="581.7" r="13.1"/>
		<circle class="st1" cx="983.8" cy="539.7" r="13.1"/>
		<circle class="st1" cx="983.8" cy="498.3" r="13.1"/>
	</g>
	<g id="Calque_11_-_copie_4">
		<circle class="st1" cx="822.3" cy="647.9" r="13.1"/>
		<circle class="st1" cx="851.1" cy="676.7" r="13.1"/>
		<circle class="st1" cx="880.8" cy="706.4" r="13.1"/>
		<circle class="st1" cx="921.2" cy="705.9" r="13.1"/>
	</g>
</g>
<g id="Calque_4">
	<circle class="st2" cx="959.9" cy="727.6" r="13.1"/>
	<circle class="st2" cx="932.6" cy="759.7" r="13.1"/>
	<circle class="st2" cx="904.5" cy="787.4" r="13.1"/>
	<circle class="st2" cx="869.2" cy="811.6" r="13.1"/>
	<circle class="st2" cx="840.3" cy="780.3" r="13.1"/>
	<circle class="st2" cx="808.4" cy="751" r="13.1"/>
	<circle class="st2" cx="776.5" cy="721.7" r="13.1"/>
	<circle class="st2" cx="748.7" cy="695.1" r="13.1"/>
	<circle class="st2" cx="709.3" cy="705.6" r="13.1"/>
	<circle class="st2" cx="669.9" cy="710.8" r="13.1"/>
	<circle class="st2" cx="627.8" cy="710.8" r="13.1"/>
	<circle class="st2" cx="585.8" cy="710.8" r="13.1"/>
	<circle class="st2" cx="585.8" cy="752.9" r="13.1"/>
	<circle class="st2" cx="585.8" cy="794.9" r="13.1"/>
	<circle class="st2" cx="585.8" cy="834.3" r="13.1"/>
	<circle class="st2" cx="585.8" cy="876.4" r="13.1"/>
	<g id="Calque_10">
		<circle class="st2" cx="440.5" cy="913.9" r="13.1"/>
		<circle class="st2" cx="481.2" cy="913.9" r="13.1"/>
		<circle class="st2" cx="523.3" cy="913.9" r="13.1"/>
		<circle class="st2" cx="564.7" cy="913.9" r="13.1"/>
	</g>
	<g id="Calque_11">
		<circle class="st2" cx="503" cy="712.2" r="13.1"/>
		<circle class="st2" cx="503" cy="752.9" r="13.1"/>
		<circle class="st2" cx="503" cy="795" r="13.1"/>
		<circle class="st2" cx="531.9" cy="823.2" r="13.1"/>
	</g>
</g>
<g id="Calque_8">
	<circle class="st3" cx="544.4" cy="876.4" r="13.1"/>
	<circle class="st3" cx="503" cy="876.4" r="13.1"/>
	<circle class="st3" cx="460.9" cy="876.4" r="13.1"/>
	<circle class="st3" cx="420.2" cy="876.4" r="13.1"/>
	<circle class="st3" cx="420.2" cy="834.3" r="13.1"/>
	<circle class="st3" cx="420.2" cy="794.9" r="13.1"/>
	<circle class="st3" cx="420.2" cy="752.9" r="13.1"/>
	<circle class="st3" cx="420.2" cy="710.8" r="13.1"/>
	<circle class="st3" cx="377" cy="712.7" r="13.1"/>
	<circle class="st3" cx="337.5" cy="712.7" r="13.1"/>
	<circle class="st3" cx="295.1" cy="709.2" r="13.1"/>
	<circle class="st3" cx="254.7" cy="696.1" r="13.1"/>
	<circle class="st3" cx="225" cy="725.8" r="13.1"/>
	<circle class="st3" cx="195.2" cy="755.6" r="13.1"/>
	<circle class="st3" cx="167.4" cy="783.4" r="13.1"/>
	<circle class="st3" cx="137.6" cy="813.2" r="13.1"/>
	<g id="Calque_9">
		<circle class="st3" cx="213.5" cy="812.3" r="13.1"/>
		<circle class="st3" cx="254.3" cy="812.3" r="13.1"/>
		<circle class="st3" cx="296.3" cy="812.3" r="13.1"/>
		<circle class="st3" cx="337.7" cy="812.3" r="13.1"/>
	</g>
	<g id="Calque_20">
		<circle class="st3" cx="186.9" cy="652.4" r="13.1"/>
		<circle class="st3" cx="158.1" cy="681.2" r="13.1"/>
		<circle class="st3" cx="128.3" cy="710.9" r="13.1"/>
		<circle class="st3" cx="128.8" cy="751.3" r="13.1"/>
	</g>
</g>
<g id="Calque_6">
	<circle class="st4" cx="102" cy="786.6" r="13.1"/>
	<circle class="st4" cx="69.7" cy="759.5" r="13.1"/>
	<circle class="st4" cx="41.8" cy="731.7" r="13.1"/>
	
		<ellipse transform="matrix(7.935762e-03 -1 1 7.935762e-03 -679.5646 708.3409)" class="st4" cx="17.2" cy="696.7" rx="13.1" ry="13.1"/>
	<circle class="st4" cx="46.4" cy="669.2" r="13.1"/>
	<circle class="st4" cx="76.6" cy="638.1" r="13.1"/>
	<circle class="st4" cx="106.8" cy="607.1" r="13.1"/>
	<circle class="st4" cx="134.6" cy="577.9" r="13.1"/>
	
		<ellipse transform="matrix(0.9951 -9.853765e-02 9.853765e-02 0.9951 -52.6507 14.5999)" class="st4" cx="121.5" cy="540.3" rx="13.1" ry="13.1"/>
	<circle class="st4" cx="120.3" cy="498.2" r="13.1"/>
	
		<ellipse transform="matrix(0.9951 -9.853765e-02 9.853765e-02 0.9951 -44.5568 14.2002)" class="st4" cx="121.5" cy="458.2" rx="13.1" ry="13.1"/>
	<circle class="st4" cx="133.5" cy="418.3" r="13.1"/>
	<circle class="st4" cx="103.5" cy="388.8" r="13.1"/>
	<circle class="st4" cx="73.5" cy="359.3" r="13.1"/>
	<circle class="st4" cx="45.4" cy="331.7" r="13.1"/>
	
		<ellipse transform="matrix(1 -8.770922e-03 8.770922e-03 1 -2.6501 0.1469)" class="st4" cx="15.4" cy="302.2" rx="13.1" ry="13.1"/>
	<g id="Calque_10_-_copie_2">
		
			<ellipse transform="matrix(1 -8.770922e-03 8.770922e-03 1 -3.308 0.1735)" class="st4" cx="18.1" cy="377.2" rx="13.1" ry="13.1"/>
		
			<ellipse transform="matrix(1 -8.770922e-03 8.770922e-03 1 -3.6653 0.1751)" class="st4" cx="18.1" cy="418" rx="13.1" ry="13.1"/>
		
			<ellipse transform="matrix(1 -8.770922e-03 8.770922e-03 1 -4.0341 0.1767)" class="st4" cx="18.1" cy="460" rx="13.1" ry="13.1"/>
		
			<ellipse transform="matrix(1.281733e-02 -0.9999 0.9999 1.281733e-02 -483.4712 513.1118)" class="st4" cx="18.1" cy="501.4" rx="13.1" ry="13.1"/>
	</g>
	<g id="Calque_11_-_copie_2">
		<circle class="st4" cx="179.6" cy="351.8" r="13.1"/>
		<circle class="st4" cx="150.8" cy="323" r="13.1"/>
		<circle class="st4" cx="121.1" cy="293.3" r="13.1"/>
		<circle class="st4" cx="80.7" cy="293.8" r="13.1"/>
	</g>
</g>
<g id="Calque_5">
	<radialGradient id="SVGID_1_" cx="43.48" cy="272.03" r="13.14" gradientUnits="userSpaceOnUse">
		<stop  offset="0" style="stop-color:#FFFFFF"/>
		<stop  offset="1" style="stop-color:#101010"/>
	</radialGradient>
	<circle class="st5" cx="43.5" cy="272" r="13.1"/>
	<radialGradient id="SVGID_2_" cx="70.82" cy="239.9" r="13.14" gradientUnits="userSpaceOnUse">
		<stop  offset="0" style="stop-color:#FFFFFF"/>
		<stop  offset="1" style="stop-color:#101010"/>
	</radialGradient>
	<circle class="st6" cx="70.8" cy="239.9" r="13.1"/>
	<radialGradient id="SVGID_3_" cx="98.91" cy="212.25" r="13.14" gradientUnits="userSpaceOnUse">
		<stop  offset="0" style="stop-color:#FFFFFF"/>
		<stop  offset="1" style="stop-color:#101010"/>
	</radialGradient>
	<circle class="st7" cx="98.9" cy="212.2" r="13.1"/>
	<radialGradient id="SVGID_4_" cx="134.13" cy="188.01" r="13.14" gradientUnits="userSpaceOnUse">
		<stop  offset="0" style="stop-color:#FFFFFF"/>
		<stop  offset="1" style="stop-color:#101010"/>
	</radialGradient>
	<circle class="st8" cx="134.1" cy="188" r="13.1"/>
	<radialGradient id="SVGID_5_" cx="163.08" cy="219.37" r="13.14" gradientUnits="userSpaceOnUse">
		<stop  offset="0" style="stop-color:#FFFFFF"/>
		<stop  offset="1" style="stop-color:#101010"/>
	</radialGradient>
	<circle class="st9" cx="163.1" cy="219.4" r="13.1"/>
	<radialGradient id="SVGID_6_" cx="194.99" cy="248.65" r="13.14" gradientUnits="userSpaceOnUse">
		<stop  offset="0" style="stop-color:#FFFFFF"/>
		<stop  offset="1" style="stop-color:#101010"/>
	</radialGradient>
	<circle class="st10" cx="195" cy="248.6" r="13.1"/>
	<radialGradient id="SVGID_7_" cx="226.89" cy="277.93" r="13.14" gradientUnits="userSpaceOnUse">
		<stop  offset="0" style="stop-color:#FFFFFF"/>
		<stop  offset="1" style="stop-color:#101010"/>
	</radialGradient>
	<circle class="st11" cx="226.9" cy="277.9" r="13.1"/>
	<radialGradient id="SVGID_8_" cx="254.68" cy="304.58" r="13.14" gradientUnits="userSpaceOnUse">
		<stop  offset="0" style="stop-color:#FFFFFF"/>
		<stop  offset="1" style="stop-color:#101010"/>
	</radialGradient>
	<circle class="st12" cx="254.7" cy="304.6" r="13.1"/>
	<radialGradient id="SVGID_9_" cx="294.1" cy="294.07" r="13.14" gradientUnits="userSpaceOnUse">
		<stop  offset="0" style="stop-color:#FFFFFF"/>
		<stop  offset="1" style="stop-color:#101010"/>
	</radialGradient>
	<circle class="st13" cx="294.1" cy="294.1" r="13.1"/>
	<radialGradient id="SVGID_10_" cx="333.52" cy="288.82" r="13.14" gradientUnits="userSpaceOnUse">
		<stop  offset="0" style="stop-color:#FFFFFF"/>
		<stop  offset="1" style="stop-color:#101010"/>
	</radialGradient>
	<circle class="st14" cx="333.5" cy="288.8" r="13.1"/>
	<radialGradient id="SVGID_11_" cx="375.56" cy="288.82" r="13.14" gradientUnits="userSpaceOnUse">
		<stop  offset="0" style="stop-color:#FFFFFF"/>
		<stop  offset="1" style="stop-color:#101010"/>
	</radialGradient>
	<circle class="st15" cx="375.6" cy="288.8" r="13.1"/>
	<radialGradient id="SVGID_12_" cx="417.61" cy="288.82" r="13.14" gradientUnits="userSpaceOnUse">
		<stop  offset="0" style="stop-color:#FFFFFF"/>
		<stop  offset="1" style="stop-color:#101010"/>
	</radialGradient>
	<circle class="st16" cx="417.6" cy="288.8" r="13.1"/>
	<radialGradient id="SVGID_13_" cx="417.61" cy="246.77" r="13.14" gradientUnits="userSpaceOnUse">
		<stop  offset="0" style="stop-color:#FFFFFF"/>
		<stop  offset="1" style="stop-color:#101010"/>
	</radialGradient>
	<circle class="st17" cx="417.6" cy="246.8" r="13.1"/>
	<radialGradient id="SVGID_14_" cx="417.61" cy="204.72" r="13.14" gradientUnits="userSpaceOnUse">
		<stop  offset="0" style="stop-color:#FFFFFF"/>
		<stop  offset="1" style="stop-color:#101010"/>
	</radialGradient>
	<circle class="st18" cx="417.6" cy="204.7" r="13.1"/>
	<radialGradient id="SVGID_15_" cx="417.61" cy="165.3" r="13.14" gradientUnits="userSpaceOnUse">
		<stop  offset="0" style="stop-color:#FFFFFF"/>
		<stop  offset="1" style="stop-color:#101010"/>
	</radialGradient>
	<circle class="st19" cx="417.6" cy="165.3" r="13.1"/>
	<radialGradient id="SVGID_16_" cx="417.61" cy="125.89" r="13.14" gradientUnits="userSpaceOnUse">
		<stop  offset="0" style="stop-color:#FFFFFF"/>
		<stop  offset="1" style="stop-color:#101010"/>
	</radialGradient>
	<circle class="st20" cx="417.6" cy="125.9" r="13.1"/>
	<g id="Calque_10_-_copie_3">
		<radialGradient id="SVGID_17_" cx="565.6" cy="86.11" r="13.14" gradientUnits="userSpaceOnUse">
			<stop  offset="0" style="stop-color:#FFFFFF"/>
			<stop  offset="1" style="stop-color:#101010"/>
		</radialGradient>
		<circle class="st21" cx="565.6" cy="86.1" r="13.1"/>
		<radialGradient id="SVGID_18_" cx="524.87" cy="86.11" r="13.14" gradientUnits="userSpaceOnUse">
			<stop  offset="0" style="stop-color:#FFFFFF"/>
			<stop  offset="1" style="stop-color:#101010"/>
		</radialGradient>
		<circle class="st22" cx="524.9" cy="86.1" r="13.1"/>
		<radialGradient id="SVGID_19_" cx="482.82" cy="86.11" r="13.14" gradientUnits="userSpaceOnUse">
			<stop  offset="0" style="stop-color:#FFFFFF"/>
			<stop  offset="1" style="stop-color:#101010"/>
		</radialGradient>
		<circle class="st23" cx="482.8" cy="86.1" r="13.1"/>
		<radialGradient id="SVGID_20_" cx="441.43" cy="86.11" r="13.14" gradientUnits="userSpaceOnUse">
			<stop  offset="0" style="stop-color:#FFFFFF"/>
			<stop  offset="1" style="stop-color:#101010"/>
		</radialGradient>
		<circle class="st24" cx="441.4" cy="86.1" r="13.1"/>
	</g>
	<g id="Calque_11_-_copie_3">
		<radialGradient id="SVGID_21_" cx="503.53" cy="288.24" r="13.14" gradientUnits="userSpaceOnUse">
			<stop  offset="0" style="stop-color:#FFFFFF"/>
			<stop  offset="1" style="stop-color:#101010"/>
		</radialGradient>
		<circle class="st25" cx="503.5" cy="288.2" r="13.1"/>
		<radialGradient id="SVGID_22_" cx="503.53" cy="247.51" r="13.14" gradientUnits="userSpaceOnUse">
			<stop  offset="0" style="stop-color:#FFFFFF"/>
			<stop  offset="1" style="stop-color:#101010"/>
		</radialGradient>
		<circle class="st26" cx="503.5" cy="247.5" r="13.1"/>
		<radialGradient id="SVGID_23_" cx="503.53" cy="205.46" r="13.14" gradientUnits="userSpaceOnUse">
			<stop  offset="0" style="stop-color:#FFFFFF"/>
			<stop  offset="1" style="stop-color:#101010"/>
		</radialGradient>
		<circle class="st27" cx="503.5" cy="205.5" r="13.1"/>
		<radialGradient id="SVGID_24_" cx="474.62" cy="177.21" r="13.14" gradientUnits="userSpaceOnUse">
			<stop  offset="0" style="stop-color:#FFFFFF"/>
			<stop  offset="1" style="stop-color:#101010"/>
		</radialGradient>
		<circle class="st28" cx="474.6" cy="177.2" r="13.1"/>
	</g>
</g>
</svg>
